<svg width="13" height="14" viewBox="0 0 13 14" fill="none" xmlns="http://www.w3.org/2000/svg">
<path d="M12.9627 4.48794C13.0516 4.71961 12.9762 4.98092 12.793 5.15063L11.6266 6.212C11.6562 6.43559 11.6724 6.66457 11.6724 6.89624C11.6724 7.12791 11.6562 7.35689 11.6266 7.58048L12.793 8.64185C12.9762 8.81156 13.0516 9.07287 12.9627 9.30454C12.8442 9.6251 12.7014 9.9349 12.5398 10.2285L12.4132 10.4467C12.2354 10.743 12.036 11.0232 11.8178 11.2899C11.6562 11.4812 11.3949 11.5485 11.1578 11.4731L9.65738 10.9936C9.2964 11.271 8.87347 11.5027 8.47209 11.6805L8.13536 13.2187C8.08148 13.4611 7.89291 13.6335 7.64508 13.6982C7.27333 13.7602 6.8908 13.7925 6.47595 13.7925C6.10959 13.7925 5.72706 13.7602 5.35531 13.6982C5.10748 13.6335 4.91891 13.4611 4.86503 13.2187L4.5283 11.6805C4.10267 11.5027 3.70398 11.271 3.34301 10.9936L1.84362 11.4731C1.60548 11.5485 1.34283 11.4812 1.18335 11.2899C0.964883 11.0232 0.765539 10.743 0.587745 10.4467L0.461673 10.2285C0.298157 9.9349 0.155922 9.6251 0.0365845 9.30454C-0.050696 9.07287 0.0228459 8.81156 0.207644 8.64185L1.373 7.58048C1.34337 7.35689 1.32801 7.12791 1.32801 6.89624C1.32801 6.66457 1.34337 6.43559 1.373 6.212L0.207644 5.15063C0.0228459 4.98092 -0.050696 4.72231 0.0365845 4.48794C0.155922 4.16738 0.298426 3.85758 0.461673 3.56396L0.587476 3.34575C0.765539 3.04943 0.964883 2.76927 1.18335 2.50393C1.34283 2.31132 1.60548 2.24451 1.84362 2.32048L3.34301 2.7989C3.70398 2.52036 4.10267 2.28869 4.5283 2.11278L4.86503 0.574597C4.91891 0.329996 5.10748 0.13577 5.35531 0.0945539C5.72706 0.0323531 6.10959 0 6.50019 0C6.8908 0 7.27333 0.0323531 7.64508 0.0945539C7.89291 0.13577 8.08148 0.329996 8.13536 0.574597L8.47209 2.11278C8.87347 2.28869 9.2964 2.52036 9.65738 2.7989L11.1578 2.32048C11.3949 2.24451 11.6562 2.31132 11.8178 2.50393C12.036 2.76927 12.2354 3.04943 12.4132 3.34575L12.5398 3.56396C12.7014 3.85758 12.8442 4.16738 12.9627 4.48794ZM6.50019 9.05131C7.69087 9.05131 8.65527 8.08692 8.65527 6.872C8.65527 5.70556 7.69087 4.71692 6.50019 4.71692C5.30951 4.71692 4.34512 5.70556 4.34512 6.872C4.34512 8.08692 5.30951 9.05131 6.50019 9.05131Z" fill="white"/>
</svg>
