<svg width="14" height="14" viewBox="0 0 14 14" fill="none" xmlns="http://www.w3.org/2000/svg">
<path d="M9.66667 13C12.018 11.9687 13.666 9.72733 13.666 7C13.666 4.27267 12.018 2.03133 9.66667 1V2.33333C11.258 3.25733 12.3327 5.03133 12.3327 7C12.3327 8.96867 11.258 10.7427 9.66667 11.6667V13Z" fill="white"/>
<path d="M9.66666 3.66666V10.3333C10.4833 9.59999 11 8.18066 11 6.99999C11 5.81933 10.4833 4.39999 9.66666 3.66666ZM1.66666 10.3333H3.46466L8.33333 13.5787V0.421326L3.46466 3.66666H1.66666C0.931328 3.66666 0.333328 4.26466 0.333328 4.99999V8.99999C0.333328 9.73533 0.931328 10.3333 1.66666 10.3333Z" fill="white"/>
</svg>
